<svg width="182" height="56" xmlns="http://www.w3.org/2000/svg" xmlns:xlink="http://www.w3.org/1999/xlink"><defs><path id="a" d="M0 .22h55.635v55.174H0z"/><path id="c" d="M.056.404H20.59V25.3H.056z"/></defs><g fill="none" fill-rule="evenodd"><g transform="translate(0 .583)"><mask id="b" fill="#fff"><use xlink:href="#a"/></mask><path d="M27.65 22.484c-.667 0-1.295.278-1.815.8-1.653 1.666-1.977 5.48-1.96 8.386.036 6.088 1.99 8.753 3.296 9.06l.104.023.218.014c2.487 0 3.122-6.627 3.258-8.658.262-3.953.256-9.247-2.811-9.607a2.544 2.544 0 0 0-.29-.018zm.17-9.057c-3.88 0-7.421 1.48-9.974 4.17-3.11 3.272-4.596 8.153-4.297 14.113.355 7.076 2.964 12.93 7.347 16.482l.437.355c1.662-.603 3.386-2.004 4.547-3.597l.544-.745-.743-.547c-1.705-1.256-3.041-3.122-3.968-5.55-1.067-2.788-2.024-11.572.967-15.926 1.227-1.788 3.002-2.732 5.133-2.732l.16.002c4.046.084 6.048 3.285 5.95 9.514-.08 5.084-.631 8.252-2.032 11.685l-.527 1.288s.768.228 2.755-.316c4.402-1.286 7.656-7.004 7.568-13.298-.079-5.689-3.856-14.762-13.66-14.896l-.207-.002zm1.387 32.642c-.88 1.375-1.914 2.578-3.04 3.523l-1.223 1.024s.8.412 1.573.61c1.852.57 3.565.785 5.477.785.969 0 1.953-.073 2.925-.216 8.076-1.201 16.76-9.762 17.31-22.011.32-7.118-2-13.706-6.53-18.551-4.461-4.774-10.62-7.483-17.343-7.627l-.535-.005C14.404 3.6 3.669 14.16 3.384 27.64c-.15 6.998 2.046 13.342 6.022 17.408 1.185 1.214 2.8 2.375 3.968 2.942 2.316 1.092 3.65 1.133 3.65 1.133s-1.132-1.133-2.027-2.306c-2.821-3.842-4.529-9.13-4.82-14.938-.436-8.724 2.598-13.851 5.221-16.614 3.198-3.367 7.609-5.22 12.422-5.22h.262c6.741.094 10.784 3.624 12.986 6.57 2.447 3.27 3.941 7.63 3.998 11.662.108 7.887-4.097 14.864-10 16.59-1.305.384-2.571.577-3.763.577-.332 0-.662-.015-.983-.045l-.605-.056-.508.725zm2.769 9.325c-3.94 0-7.735-1.037-10.97-3l-.299-.182-.344.062c-.462.083-.931.142-1.41.178-.306.023-.623.035-.934.035-3.914 0-7.83-1.802-11.027-5.073C2.385 42.704-.16 35.472.007 27.57.333 12.233 12.542.22 27.804.22c.207 0 .414.002.623.006 7.639.164 14.65 3.252 19.74 8.697 5.156 5.514 7.797 12.976 7.435 21.012-.651 14.52-10.888 23.822-20.188 25.203a23.7 23.7 0 0 1-3.438.256z" fill="#240047" mask="url(#b)"/></g><path fill="#240047" d="M73.34 17.008v19.547h7.227v4.93H68.101V17.008zm12.744 5.175c-1.642 0-2.968-1.363-2.968-2.971 0-1.61 1.326-2.973 2.968-2.973 1.64 0 2.968 1.364 2.968 2.973 0 1.608-1.327 2.97-2.968 2.97zm-2.55 19.302h5.1V24.21h-5.1v17.274zm8.79-17.274v-.77c0-4.649 2.758-7.307 7.09-7.307 1.152 0 2.164.21 2.827.56v4.335c-.523-.28-1.152-.454-1.954-.454-1.642 0-2.9.839-2.9 2.902v.734h4.471v4.196h-4.471v13.078h-5.063V24.211zm27.692 13.148c-1.432 2.832-4.226 4.58-7.997 4.58-5.378 0-9.15-3.74-9.15-9.09 0-5.21 3.842-9.092 8.941-9.092 5.203 0 8.8 3.811 8.8 9.231 0 .594-.035 1.049-.07 1.259h-12.676c.175 2.028 2.025 3.496 4.155 3.496 1.886 0 2.9-.803 3.702-2.098l4.295 1.714zm-4.399-6.434c-.21-1.853-1.781-3.182-3.842-3.182-2.026 0-3.667 1.539-3.876 3.182h7.718zm18.245-6.643c0-1.47-1.188-2.624-2.899-2.624-1.85 0-3.073 1.4-3.108 3.393h-4.959c.034-5.001 3.353-8.008 8.137-8.008 4.61 0 7.962 2.833 7.927 6.645 0 2.167-1.012 3.88-2.898 4.999 2.479 1.049 3.91 3.007 3.91 5.664 0 4.476-3.7 7.589-8.8 7.589-5.273 0-8.73-3.182-8.8-8.497h5.064c.105 2.132 1.606 3.776 3.806 3.776 2.06 0 3.528-1.224 3.528-3.147 0-1.853-1.571-3.077-3.876-3.077h-1.119v-3.952h1.048c1.677 0 3.039-1.259 3.039-2.761m16.804 17.658c-5.203 0-9.115-3.742-9.115-8.778 0-2.167.84-4.616 2.41-7.062l5.553-8.637h5.936l-5.377 7.797c.558-.245 1.257-.314 1.745-.314 4.61 0 7.962 3.636 7.962 8.147 0 5.035-3.946 8.847-9.114 8.847m0-12.658c-2.27 0-4.051 1.747-4.051 3.95 0 2.239 1.747 4.022 4.016 4.022 2.27 0 4.086-1.783 4.086-3.986 0-2.239-1.816-3.986-4.051-3.986"/><g transform="translate(161.154 16.639)"><mask id="d" fill="#fff"><use xlink:href="#c"/></mask><path d="M10.323.404c6.775 0 10.267 5.91 10.267 12.448 0 6.539-3.492 12.449-10.267 12.449C3.548 25.3.056 19.39.056 12.852S3.548.404 10.323.404m0 4.861c-3.527 0-5.063 3.741-5.063 7.587 0 3.847 1.536 7.588 5.063 7.588 3.527 0 5.063-3.741 5.063-7.588 0-3.846-1.536-7.587-5.063-7.587" fill="#240047" mask="url(#d)"/></g></g></svg>